inDegrees=no
num_controls=7
num_derivatives=13
num_iterations=102
num_multipliers=7
num_parameters=0
num_slacks=7
num_states=26
objective=0.469942
objective_accelerations=0.063858
objective_balance=0.002120
objective_effort=0.020308
objective_height=0.374040
objective_ligament=0.009615
solver_duration=1351.318395
status=Solve_Succeeded
success=true
DataType=double
version=3
OpenSimVersion=4.5
endheader
time	/jointset/ground_pelvis/pelvis_tilt/value	/jointset/ground_pelvis/pelvis_tx/value	/jointset/ground_pelvis/pelvis_ty/value	/jointset/hip_l/hip_flexion_l/value	/jointset/hip_l/hip_adduction_l/value	/jointset/hip_l/hip_rotation_l/value	/jointset/back/lumbar_extension/value	/jointset/patellofemoral_l/patellar_flexion_l/value	/jointset/knee_l/knee_flexion_l/value	/jointset/knee_l/knee_adduction_l/value	/jointset/knee_l/knee_rotation_l/value	/jointset/ankle_l/ankle_angle_l/value	/jointset/subtalar_l/subtalar_angle_l/value	/jointset/ground_pelvis/pelvis_tilt/speed	/jointset/ground_pelvis/pelvis_tx/speed	/jointset/ground_pelvis/pelvis_ty/speed	/jointset/hip_l/hip_flexion_l/speed	/jointset/hip_l/hip_adduction_l/speed	/jointset/hip_l/hip_rotation_l/speed	/jointset/back/lumbar_extension/speed	/jointset/patellofemoral_l/patellar_flexion_l/speed	/jointset/knee_l/knee_flexion_l/speed	/jointset/knee_l/knee_adduction_l/speed	/jointset/knee_l/knee_rotation_l/speed	/jointset/ankle_l/ankle_angle_l/speed	/jointset/subtalar_l/subtalar_angle_l/speed	/forceset/tau_hip_flexion_l	/forceset/tau_hip_adduction_l	/forceset/tau_hip_rotation_l	/forceset/tau_knee_flexion_l	/forceset/tau_ankle_angle_l	/forceset/tau_subtalar_angle_l	/forceset/tau_lumbar_extension	lambda_cid13_p0	lambda_cid13_p1	lambda_cid13_p2	lambda_cid13_p3	lambda_cid13_p4	lambda_cid13_p5	lambda_cid14_p0	/jointset/ground_pelvis/pelvis_tilt/accel	/jointset/ground_pelvis/pelvis_tx/accel	/jointset/ground_pelvis/pelvis_ty/accel	/jointset/hip_l/hip_flexion_l/accel	/jointset/hip_l/hip_adduction_l/accel	/jointset/hip_l/hip_rotation_l/accel	/jointset/back/lumbar_extension/accel	/jointset/patellofemoral_l/patellar_flexion_l/accel	/jointset/knee_l/knee_flexion_l/accel	/jointset/knee_l/knee_adduction_l/accel	/jointset/knee_l/knee_rotation_l/accel	/jointset/ankle_l/ankle_angle_l/accel	/jointset/subtalar_l/subtalar_angle_l/accel	gamma_cid13_p0	gamma_cid13_p1	gamma_cid13_p2	gamma_cid13_p3	gamma_cid13_p4	gamma_cid13_p5	gamma_cid14_p0
0	0.04979162304062917	0.1070288573939435	0.9038003871222003	0.1266922784136757	-0.3622403560846513	-0.2381939007992694	-0.2144969558742783	0.2051545070141877	0.2051545070141877	-0.1579222567590918	-0.1690712797861748	0.09024313228550125	0.08764961593296144	0	0	0	0	0	0	0	0	0	0	0	0	0	0.1164582496005511	-0.04509229169710703	-0.006781583784471512	-0.2155807554825544	0.1008319389168253	-0.07206035982828149	-0.05463348612773533	0.716308684909824	29.81492869501015	-3.48605810739079	18.29802775282837	-450.391439239966	-54.53575674215309	-26.43202450817545	-6.140092045076768	-2.501122956661362	-0.8724843544885086	14.47206254761918	0.02677872764560336	2.449766107996449	-3.958999337379731	7.347602572564442	7.347602572564444	1.902498575535501	-0.4849629372148369	-0.297428390690933	-0.09282857315091195	7.345810645428371e-09	2.014153209211346e-07	-3.049914093003257e-08	1.375738098184488e-08	3.955654744720297e-08	7.195656004719222e-08	2.65997492376552e-08
0.01	0.04949499165046721	0.106904704623916	0.903758102450447	0.1273975433841266	-0.3622381312313494	-0.2380683922439816	-0.2146995106931968	0.2055113056270349	0.2055113056270349	-0.1578284183267074	-0.16908836914865	0.09022586621354886	0.08764516259982276	-0.05901531295545595	-0.02477619805792357	-0.008422339762858546	0.1404016617293912	0.0004728663186652985	0.02499853036974591	-0.04023260981331302	0.07095265225230218	0.0709526522523022	0.01870986895146642	-0.003348135611373191	-0.003545047314334126	-0.0008873377973257199	0.1115726833322685	-0.054329027490542	-0.005735347454377152	-0.208916422123764	0.08905886630464244	-0.06037077824679664	-0.05088977829401675	-2.363492501234988	24.87412150816064	-2.237723063795503	19.82403479302926	-450.6475909107388	-64.17280373441405	-26.43180177919548	-5.735606555838484	-2.457712086746475	-0.821911687699917	13.72651803152132	0.06169700000546847	2.509430416383402	-4.013638707750577	6.908030684043795	6.908030684043799	1.846589630752454	-0.2492881883940723	-0.3968111539758066	-0.08621525732408596	6.126081377090055e-09	2.786194730596451e-07	5.445349478800543e-10	2.188214782978895e-08	-1.211950484378354e-07	4.276654286212193e-08	4.088338266113862e-08
0.02	0.04861753600373898	0.1065344211020316	0.9036326338009617	0.129487284981056	-0.3622303464316551	-0.2376959916020123	-0.2152960409911371	0.2065654175889012	0.2065654175889012	-0.1575492094896482	-0.169136849730298	0.09017039601801889	0.08763193011385072	-0.116164851313251	-0.04922615037139223	-0.01663679554633164	0.276895325295672	0.001111989278469622	0.04937841733628141	-0.07879509580436565	0.139462669803832	0.139462669803832	0.0370740809349425	-0.006278243834566878	-0.007640824715514428	-0.001755830566678799	0.1066871170639859	-0.06356576328397696	-0.004689111124282763	-0.2022520887649737	0.07728579369245955	-0.04868119666531179	-0.04714607046029812	-5.410688750867788	19.93299041064849	-0.9954888794489959	21.43219022583602	-450.2446760657452	-73.67929583168794	-26.43092892398332	-5.766937125544584	-2.435873807770382	-0.8309075586114177	13.69046291499708	0.06003005587340825	2.326037427354368	-3.624974572927653	6.859075632409958	6.859075632409957	1.833367181937432	-0.4013574595789357	-0.4075744080601686	-0.08905956755638397	4.906352108751739e-09	3.558236251981556e-07	3.158821082579268e-08	3.000691467773302e-08	-2.819466443228738e-07	1.357652567705165e-08	5.516701608462202e-08
0.03	0.04717568318297567	0.1059219422315414	0.9034255507629246	0.132925438027965	-0.362215336539959	-0.2370828845532041	-0.2162685395592026	0.2082948593076041	0.2082948593076041	-0.1570875476578765	-0.1692132119220546	0.09007303896258652	0.08761067105014142	-0.1720557908301999	-0.07314495692471315	-0.02478791498176632	0.4102833575078759	0.001912526811492878	0.0731762349158406	-0.1153586257036148	0.2062092051884317	0.2062092051884317	0.0552271498705459	-0.008940806776447931	-0.01175451862703124	-0.002447292850708745	0.1039120181649666	-0.05982093671189712	-0.004379218161764484	-0.2009601292295157	0.07837640361936174	-0.05129527426287132	-0.04485128138515255	-5.135773553061539	21.0464948716989	-1.203104936235547	20.5180168634668	-449.4676096036315	-70.81068785727103	-26.42914698958145	-5.477677836069129	-2.351178024612384	-0.8084866129453087	13.0951863305123	0.09338611533372773	2.3966457106149	-3.620143382652734	6.549961088125198	6.549961088125178	1.801671765819563	-0.1907004361189641	-0.401840765598553	-0.0519464396715441	4.857909923511613e-09	4.098553420504314e-07	-4.300568007674146e-09	4.092513865372718e-08	-3.431446191395132e-07	2.517251989247808e-08	7.088910054994961e-08
0.04	0.04517941987278305	0.1050740165064181	0.9031367020351464	0.1376839139882321	-0.3621916571702694	-0.2362338009711286	-0.2175962936631065	0.2106852700994809	0.2106852700994809	-0.1564452761334592	-0.1693145986881553	0.08993683019145876	0.08758394598742275	-0.2270469491991134	-0.09631552129801162	-0.03298993349463384	0.5409599079672901	0.002845884877195361	0.09657372398972799	-0.1498462029720224	0.2716564844386398	0.2716564844386396	0.07319601946406044	-0.01128315870338262	-0.01541116785459266	-0.002849030368548463	0.1011369192659474	-0.05607611013981733	-0.004069325199246417	-0.1996681696940577	0.07946701354626411	-0.05390935186043093	-0.04255649231000694	-4.831267394420798	22.15987827861956	-1.416482995745309	19.68183433333954	-448.0905682463521	-67.81791565883039	-26.42601190105468	-5.586980895937518	-2.286225371765888	-0.8410873740980059	13.14816656443915	0.08659416240940022	2.245971726220006	-3.209784046759367	6.599224405531618	6.599224405531617	1.796527313519703	-0.3373152565899309	-0.3161654712690881	-0.03111461431833837	4.833617987407531e-09	4.63409276731857e-07	-4.156939745374677e-08	5.190095968390795e-08	-4.02289941975361e-07	3.760946279657455e-08	8.664084379964513e-08
0.05	0.04263851698963769	0.1039979523522142	0.9027654649870073	0.1437337031397283	-0.3621587683459749	-0.2351545085044831	-0.2192587796919048	0.2137219997068921	0.2137219997068921	-0.1556263409267494	-0.1694392210719629	0.08976503450771507	0.08755341584019409	-0.2808349592030542	-0.1187864615914565	-0.0412674968622363	0.6682426906710222	0.003671498004334737	0.1191588496787186	-0.1824010910963255	0.3352400386378309	0.3352400386378305	0.09031870035257612	-0.01359738214087581	-0.01901662563005592	-0.003342134687904662	0.09671735196976633	-0.05536693393905229	-0.003361752979991422	-0.1962818260682088	0.07654497006943503	-0.05264040182768456	-0.0392281246404513	-5.580933373814839	21.6406856021847	-1.220228875684719	19.58346954172373	-446.6002646248443	-67.95641074683641	-26.42109664653815	-5.22990008879288	-2.21089069655206	-0.8226748633768529	12.40505384048212	0.071417238453996	2.245916894086421	-3.240854441567046	6.170493710793655	6.170493710793675	1.629369557317556	-0.1719047521492186	-0.3930153599086201	-0.07124688728573958	7.027705058744591e-10	4.337712375439742e-07	-1.50906918696272e-08	5.127736254850839e-08	-4.753089806088183e-07	3.783158054684525e-09	8.292507049138593e-08
